/* XPM */
static char *font[] = {
/* width height ncolors chars_per_pixel */
"128 32 2 1",
/* colors */
"  c black",
". c white",
/* pixels */
" .   .       .       .   .  . . . .     . .     . .     . .  .  . .         . .  .          . .  .   .      ....    ..    ......",
" .   .       .       .   .  . . . .     . .     . .     . .  .  . .         . .  .          . .  .   .      ....    ..    ......",
" .   .       .       .   .... . . ....... ....... ....... ....... . ....    . .  ... ...    . . .... .      ....    ..    ......",
" ........... ........... .  . ...   .           .               ....    ........ .   .  ........ .  ..   .......    ..    ......",
"         .   .       .   .... . ..... ....... ... ....... ......    ..... .      ... .... . . . ....     .  ..........    ..    ",
"         .   .       .   .  . .     . .     . . . .     . .          .  . .          .  . . . .  .       .  ..........    ..    ",
"         .   .       .   .  . .     . .     . . . .     . .          .  . .          .  . . . .  .       .  ..........    ..    ",
"         .   .       .   .  . .     . .     . . . .     . .          .  . .          .  . . . .  .       .  ..........    ..    ",
"     .  . .      .  . .  .    .   . .                         .  .   .   .   .  . . ...  .  ...  .   .             .    .    .  ",
"     .  . . . . ...   . . .  .   .   .  . .  .                . . . ..  . . . . . . .   . .   . . . . .           .      .  . . ",
"     .      ... .    .  . .     .     .  .   .               .  . .  .    .   . . . ..  .     . . . . .  .   .   .  ...   .   . ",
"     .      . .  .   .   .      .     . ... ...     ...      .  . .  .   .   .  ...   . ..   .   .   ..         .          . .  ",
"     .      ...   .  .  . ..    .     .  .   .               .  . .  .   .    .   .   . . .  .  . .   .          .  ...   .  .  ",
"            . . ... .   ...      .   .  . .  .   .          .   . .  .  .   . .   . . . . . .   . . . .  .   .    .      .      ",
"     .           .  . .   ..      . .           .        .  .    .  ... ...  .    .  .   .  .    .   .      .      .    .    .  ",
"                                                                                                                                ",
" .   .  ..   .  ..  ... ...  .  . . ...   . . . .   . . ..   .  ..   .  ..   .  ... . . . . . . . . . . ...  .. .    ..  .      ",
". . . . . . . . . . .   .   . . . .  .    . . . .   ... . . . . . . . . . . . .  .  . . . . . . . . . .   .  .  .     . . .     ",
". . . . . . .   . . .   .   .   . .  .    . ..  .   ... . . . . . . . . . . .    .  . . . . . . . . . .   .  .   .    .         ",
"... ... ..  .   . . ..  ..  ... ...  .    . ..  .   . . . . . . ..  . . ..   .   .  . . . . . .  .   .   .   .   .    .         ",
"... . . . . .   . . .   .   . . . .  .    . . . .   . . . . . . .   . . . .   .  .  . . . . ... . .  .  .    .   .    .         ",
".   . . . . . . . . .   .   . . . .  .  . . . . .   . . . . . . .   . . . . . .  .  . .  .  ... . .  .  .    .    .   .         ",
" .. . . ..   .  ..  ... .    .  . . ...  .  . . ... . . . .  .  .    .  . .  .   .  ...  .  . . . .  .  ...  ..   .  ..         ",
"                                                                      .                                                     ... ",
" .      .         .       .     .    .    . .   ..                                                            .  .  .    . .    ",
"  .     .         .      .      .           .    .                               .                           .   .   .  . .     ",
"    ..  ..   .   ..  .   .   .. ..  ..    . . .  .  . . ..   .  ..   .. ..   .. ... . . . . . . . . . . ...  .   .   .       .  ",
"      . . . . . . . . . ... . . . .  .    . . .  .  ... . . . . . . . . . . .    .  . . . . . . . . . .   . .         .      .  ",
"     .. . . .   . . ...  .   .. . .  .    . ..   .  ... . . . . ..   .. .    .   .  . . . . ...  .   ..  .   .   .   .      . . ",
"    . . . . . . . . .    .    . . .  .  . . . .  .  . . . . . . .     . .     .  .  . .  .  ... . .   . .    .   .   .      . . ",
"     .. ..   .   ..  ..  .  ..  . . ...  .  . . ... . . . .  .  .     . .   ..    .  ..  .  . . . . ..  ...   .  .  .       ... ",
"                                                                                                                                "
};
